<?xml version="1.0" encoding="UTF-8"?><svg xmlns="http://www.w3.org/2000/svg" width="1096" height="1096" style="font-family: Arial, sans-serif; width: 1096px; height: 702px;"><g class="path" style="cursor: move;"><path stroke="black" stroke-width="1.5" fill="none" d="M427.31,414.38L445.32,441.92"></path><path stroke="black" stroke-width="1.5" fill="white" class="arrowfront" d="M-1,0L15,5L15,-5Z" transform="translate(445.31949982581585,441.9234817704636) rotate(236.81534144870284)"></path></g><g class="path" style="cursor: move;"><path stroke="black" stroke-width="1.5" fill="none" d="M490.49,412.77L473.68,441.37"></path><path stroke="black" stroke-width="1.5" fill="white" class="arrowfront" d="M-1,0L15,5L15,-5Z" transform="translate(473.68320421074634,441.3730710220923) rotate(-59.559413735376225)"></path></g><g class="path" style="cursor: move;"><path stroke="black" stroke-width="1.5" fill="none" d="M566.74,407.98L555.57,438.58"></path><path stroke="black" stroke-width="1.5" fill="white" class="arrowfront" d="M-1,0L15,5L15,-5Z" transform="translate(555.5661152342504,438.58209785076724) rotate(-69.94310479610841)"></path></g><g class="path" style="cursor: move;"><path stroke="black" stroke-width="1.5" fill="none" d="M650.21,409.00L650.72,457.00"></path><path stroke="black" stroke-width="1.5" fill="white" class="arrowfront" d="M-1,0L15,5L15,-5Z" transform="translate(650.7174292793832,457.0011694555189) rotate(269.3966596177585)"></path></g><g class="path" style="cursor: move;"><path stroke="black" stroke-width="1.5" fill="none" d="M381.51,476.43L398.71,534.90"></path><path stroke="black" stroke-width="1.5" fill="white" class="arrowfront" d="M-1,0L15,5L15,-5Z" transform="translate(398.7120164899459,534.8985299097418) rotate(253.60165984314804)"></path></g><g class="path" style="cursor: move;"><path stroke="black" stroke-width="1.5" fill="none" d="M389.94,472.76L452.11,532.18"></path><path stroke="black" stroke-width="1.5" fill="white" class="arrowfront" d="M-1,0L15,5L15,-5Z" transform="translate(452.1066655734801,532.180595170032) rotate(223.70287435063227)"></path></g><g class="path" style="cursor: move;"><path stroke="black" stroke-width="1.5" fill="none" d="M313.40,508.77L333.98,535.78"></path><path stroke="black" stroke-width="1.5" fill="white" class="arrowfront" d="M-1,0L15,5L15,-5Z" transform="translate(333.9760292943729,535.7847667066715) rotate(232.7000110408488)"></path></g><g class="path" style="cursor: move;"><path stroke="black" stroke-width="1.5" fill="none" d="M320.78,583.46L333.51,565.89"></path><path stroke="black" stroke-width="1.5" fill="white" class="arrowfront" d="M-1,0L15,5L15,-5Z" transform="translate(333.5121643240778,565.8916621069109) rotate(125.93799792351342)"></path></g><g class="path" style="cursor: move;"><path stroke="black" stroke-width="1.5" fill="none" d="M451.17,471.46L417.58,536.36"></path><path stroke="black" stroke-width="1.5" fill="white" class="arrowfront" d="M-1,0L15,5L15,-5Z" transform="translate(417.5773968171021,536.3586346782797) rotate(-62.635588708877364)"></path></g><g class="path" style="cursor: move;"><path stroke="black" stroke-width="1.5" fill="none" d="M461.99,472.93L467.35,526.12"></path><path stroke="black" stroke-width="1.5" fill="white" class="arrowfront" d="M-1,0L15,5L15,-5Z" transform="translate(467.3509484632272,526.1165389892336) rotate(264.243270226749)"></path></g><g class="path" style="cursor: move;"><path stroke="black" stroke-width="1.5" fill="none" d="M528.53,464.31L372.08,541.77"></path><path stroke="black" stroke-width="1.5" fill="white" class="arrowfront" d="M-1,0L15,5L15,-5Z" transform="translate(372.08463720329087,541.7654651347768) rotate(-26.34134403151572)"></path></g><g class="path" style="cursor: move;"><path stroke="black" stroke-width="1.5" fill="none" d="M530.39,466.38L425.89,542.04"></path><path stroke="black" stroke-width="1.5" fill="white" class="arrowfront" d="M-1,0L15,5L15,-5Z" transform="translate(425.8936281797404,542.0444037464866) rotate(-35.907251765804794)"></path></g><g class="path" style="cursor: move;"><path stroke="black" stroke-width="1.5" fill="none" d="M534.06,469.04L485.46,530.41"></path><path stroke="black" stroke-width="1.5" fill="white" class="arrowfront" d="M-1,0L15,5L15,-5Z" transform="translate(485.4597338244576,530.4146219016682) rotate(-51.62678872741954)"></path></g><g class="path" style="cursor: move;"><path stroke="black" stroke-width="1.5" fill="none" d="M544.10,471.93L538.54,529.11"></path><path stroke="black" stroke-width="1.5" fill="white" class="arrowfront" d="M-1,0L15,5L15,-5Z" transform="translate(538.5352270492964,529.1071565049504) rotate(-84.44398843571044)"></path></g><g class="path" style="cursor: move;"><path stroke="black" stroke-width="1.5" fill="none" d="M553.69,470.86L583.88,539.77"></path><path stroke="black" stroke-width="1.5" fill="white" class="arrowfront" d="M-1,0L15,5L15,-5Z" transform="translate(583.8831405455493,539.7727762238038) rotate(246.3417049892838)"></path></g><g class="path" style="cursor: move;"><path stroke="black" stroke-width="1.5" fill="none" d="M557.74,469.15L634.78,566.25"></path><path stroke="black" stroke-width="1.5" fill="white" class="arrowfront" d="M-1,0L15,5L15,-5Z" transform="translate(634.782133509145,566.2532851564372) rotate(231.5721614551366)"></path></g><g class="path" style="cursor: move;"><path stroke="black" stroke-width="1.5" fill="none" d="M640.53,489.78L607.64,541.35"></path><path stroke="black" stroke-width="1.5" fill="white" class="arrowfront" d="M-1,0L15,5L15,-5Z" transform="translate(607.640681437678,541.3503306308754) rotate(-57.47259360690398)"></path></g><g class="path" style="cursor: move;"><path stroke="black" stroke-width="1.5" fill="none" d="M650.83,492.00L650.22,562.00"></path><path stroke="black" stroke-width="1.5" fill="white" class="arrowfront" d="M-1,0L15,5L15,-5Z" transform="translate(650.2233867594151,562.0008459400956) rotate(-89.50148600595583)"></path></g><g class="path" style="cursor: move;"><path stroke="black" stroke-width="1.5" fill="none" d="M365.56,560.44L453.17,624.97"></path><path stroke="black" stroke-width="1.5" fill="white" class="arrowfront" d="M-1,0L15,5L15,-5Z" transform="translate(453.16981446257256,624.9718086340511) rotate(216.3752392352302)"></path></g><g class="path" style="cursor: move;"><path stroke="black" stroke-width="1.5" fill="none" d="M417.52,566.28L458.06,621.07"></path><path stroke="black" stroke-width="1.5" fill="white" class="arrowfront" d="M-1,0L15,5L15,-5Z" transform="translate(458.06462815640896,621.0723189343792) rotate(233.4963287386616)"></path></g><g class="path" style="cursor: move;"><path stroke="black" stroke-width="1.5" fill="none" d="M470.58,561.00L472.23,617.01"></path><path stroke="black" stroke-width="1.5" fill="white" class="arrowfront" d="M-1,0L15,5L15,-5Z" transform="translate(472.2271439437841,617.0085873463955) rotate(268.31533674755804)"></path></g><g class="path" style="cursor: move;"><path stroke="black" stroke-width="1.5" fill="none" d="M525.40,561.72L486.80,620.44"></path><path stroke="black" stroke-width="1.5" fill="white" class="arrowfront" d="M-1,0L15,5L15,-5Z" transform="translate(486.8023093147709,620.4372397485433) rotate(-56.681334133740656)"></path></g><g class="path" style="cursor: move;"><path stroke="black" stroke-width="1.5" fill="none" d="M578.04,567.04L493.31,625.49"></path><path stroke="black" stroke-width="1.5" fill="white" class="arrowfront" d="M-1,0L15,5L15,-5Z" transform="translate(493.3065663925388,625.4899592471908) rotate(-34.59519646263185)"></path></g><g class="path" style="cursor: move;"><path stroke="black" stroke-width="1.5" fill="none" d="M631.19,587.12L496.63,630.57"></path><path stroke="black" stroke-width="1.5" fill="white" class="arrowfront" d="M-1,0L15,5L15,-5Z" transform="translate(496.6305030500309,630.5698588718408) rotate(-17.89602424686917)"></path></g><g class="path" style="cursor: move;"><path stroke="black" stroke-width="1.5" fill="none" d="M565.55,460.29L626.52,472.89"></path><path stroke="black" stroke-width="1.5" fill="white" class="arrowfront" d="M-1,0L15,5L15,-5Z" transform="translate(626.5231007268403,472.88627129915113) rotate(191.67612916766586)"></path></g><g class="path" style="cursor: move;"><path stroke="black" stroke-width="1.5" fill="none" d="M634.81,485.81L556.58,537.80"></path><path stroke="black" stroke-width="1.5" fill="white" class="arrowfront" d="M-1,0L15,5L15,-5Z" transform="translate(556.5844147509346,537.8045798174408) rotate(-33.61345238068935)"></path></g><g transform="translate(416,402)" style="cursor: move;"><path fill-opacity="0.7" stroke-width="2" z-index="1" d="M 0 0 m 20, 0 a 20,15 0 1,1 -40,0 a 20,15 0 1,1 40,0" fill="#ffffff" stroke="#000000"></path><rect class="textbg" fill="#ffffff" width="7.40625" height="15.1875" x="-3.703125" y="23"></rect><text class="nodelabel" y="35" text-anchor="middle">g</text></g><g transform="translate(501,400)" style="cursor: move;"><path fill-opacity="0.7" stroke-width="2" z-index="1" d="M 0 0 m 20, 0 a 20,15 0 1,1 -40,0 a 20,15 0 1,1 40,0" fill="#ffffff" stroke="#000000"></path><rect class="textbg" fill="#ffffff" width="7.40625" height="15.1875" x="-3.703125" y="23"></rect><text class="nodelabel" y="35" text-anchor="middle">h</text></g><g transform="translate(574.0000000000001,394.00000000000006)" style="cursor: move;"><path fill-opacity="0.7" stroke-width="2" z-index="1" d="M 0 0 m 20, 0 a 20,15 0 1,1 -40,0 a 20,15 0 1,1 40,0" fill="#ffffff" stroke="#000000"></path><rect class="textbg" fill="#ffffff" width="8" height="15.1875" x="-4.125" y="23"></rect><text class="nodelabel" y="35" text-anchor="middle">λ</text></g><g transform="translate(650,394.00000000000006)" style="cursor: move;"><path fill-opacity="0.7" stroke-width="2" z-index="1" d="M 0 0 m 20, 0 a 20,15 0 1,1 -40,0 a 20,15 0 1,1 40,0" fill="#ffffff" stroke="#000000"></path><rect class="textbg" fill="#ffffff" width="7.1875" height="15.1875" x="-3.328125" y="23"></rect><text class="nodelabel" y="35" text-anchor="middle">γ</text></g><g transform="translate(308,595.0000000000001)" style="cursor: move;"><path fill-opacity="0.7" stroke-width="2" z-index="1" d="M 0 0 m 20, 0 a 20,15 0 1,1 -40,0 a 20,15 0 1,1 40,0" fill="#ffffff" stroke="#000000"></path><rect class="textbg" fill="#ffffff" width="6.390625" height="15.1875" x="-2.96875" y="23"></rect><text class="nodelabel" y="35" text-anchor="middle">ξ</text></g><g transform="translate(301,497.00000000000006)" style="cursor: move;"><path fill-opacity="0.7" stroke-width="2" z-index="1" d="M 0 0 m 20, 0 a 20,15 0 1,1 -40,0 a 20,15 0 1,1 40,0" fill="#ffffff" stroke="#000000"></path><rect class="textbg" fill="#ffffff" width="7.1875" height="15.1875" x="-3.328125" y="23"></rect><text class="nodelabel" y="35" text-anchor="middle">κ</text></g><g transform="translate(376,462)" style="cursor: move;"><path fill-opacity="0.7" stroke-width="2" z-index="1" d="M 0 0 m 20, 0 a 20,15 0 1,1 -40,0 a 20,15 0 1,1 40,0" fill="#ffffff" stroke="#000000"></path><rect class="textbg" fill="#ffffff" width="8" height="15.1875" x="-3.84375" y="23"></rect><text class="nodelabel" y="35" text-anchor="middle">α</text></g><g transform="translate(460,458)" style="cursor: move;"><path fill-opacity="0.7" stroke-width="2" z-index="1" d="M 0 0 m 20, 0 a 20,15 0 1,1 -40,0 a 20,15 0 1,1 40,0" fill="#aaaaaa" stroke="#666666"></path><rect class="textbg" fill="#ffffff" width="8" height="15.1875" x="-3.828125" y="23"></rect><text class="nodelabel" y="35" text-anchor="middle">β</text></g><g transform="translate(546,456.99999999999994)" style="cursor: move;"><path fill-opacity="0.7" stroke-width="2" z-index="1" d="M 0 0 m 20, 0 a 20,15 0 1,1 -40,0 a 20,15 0 1,1 40,0" fill="#aaaaaa" stroke="#666666"></path><rect class="textbg" fill="#ffffff" width="11.1875" height="15.1875" x="-5.546875" y="23"></rect><text class="nodelabel" y="35" text-anchor="middle">m</text></g><g transform="translate(651,477)" style="cursor: move;"><path fill-opacity="0.7" stroke-width="2" z-index="1" d="M 0 0 m 20, 0 a 20,15 0 1,1 -40,0 a 20,15 0 1,1 40,0" fill="#aaaaaa" stroke="#666666"></path><rect class="textbg" fill="#ffffff" width="7.40625" height="15.1875" x="-3.703125" y="23"></rect><text class="nodelabel" y="35" text-anchor="middle">p</text></g><g transform="translate(536,549)" style="cursor: move;"><path fill-opacity="0.7" stroke-width="2" z-index="1" d="M 0 0 m 20, 0 a 20,15 0 1,1 -40,0 a 20,15 0 1,1 40,0" fill="#aaaaaa" stroke="#666666"></path><rect class="textbg" fill="#ffffff" width="8.796875" height="15.1875" x="-4.0625" y="23"></rect><text class="nodelabel" y="35" text-anchor="middle">Z</text></g><g transform="translate(350.00000000000006,551)" style="cursor: move;"><path fill-opacity="0.7" stroke-width="2" z-index="1" d="M 0 0 m 20, 0 a 20,15 0 1,1 -40,0 a 20,15 0 1,1 40,0" fill="#aaaaaa" stroke="#666666"></path><rect class="textbg" fill="#ffffff" width="7.671875" height="15.1875" x="-3.828125" y="23"></rect><text class="nodelabel" y="35" text-anchor="middle">μ</text></g><g transform="translate(406,554)" style="cursor: move;"><path fill-opacity="0.7" stroke-width="2" z-index="1" d="M 0 0 m 20, 0 a 20,15 0 1,1 -40,0 a 20,15 0 1,1 40,0" fill="#aaaaaa" stroke="#666666"></path><rect class="textbg" fill="#ffffff" width="11.171875" height="15.1875" x="-5.578125" y="23"></rect><text class="nodelabel" y="35" text-anchor="middle">σl</text></g><g transform="translate(470,546)" style="cursor: move;"><path fill-opacity="0.7" stroke-width="2" z-index="1" d="M 0 0 m 20, 0 a 20,15 0 1,1 -40,0 a 20,15 0 1,1 40,0" fill="#aaaaaa" stroke="#666666"></path><rect class="textbg" fill="#ffffff" width="13.8125" height="15.1875" x="-6.328125" y="23"></rect><text class="nodelabel" y="35" text-anchor="middle">σr</text></g><g transform="translate(473,637.0000000000001)" style="cursor: move;"><path fill-opacity="0.7" stroke-width="2" z-index="1" d="M 0 0 m 20, 0 a 20,15 0 1,1 -40,0 a 20,15 0 1,1 40,0" fill="#aaaaaa" stroke="#666666"></path><rect class="textbg" fill="#ffffff" width="10.390625" height="15.1875" x="-5.171875" y="23"></rect><text class="nodelabel" y="35" text-anchor="middle">Θ</text></g><g transform="translate(594,557.9999999999999)" style="cursor: move;"><path fill-opacity="0.7" stroke-width="2" z-index="1" d="M 0 0 m 20, 0 a 20,15 0 1,1 -40,0 a 20,15 0 1,1 40,0" fill="#aaaaaa" stroke="#666666"></path><rect class="textbg" fill="#ffffff" width="10.390625" height="15.1875" x="-5.1875" y="23"></rect><text class="nodelabel" y="35" text-anchor="middle">ω</text></g><g transform="translate(650,582)" style="cursor: move;"><path fill-opacity="0.7" stroke-width="2" z-index="1" d="M 0 0 m 20, 0 a 20,15 0 1,1 -40,0 a 20,15 0 1,1 40,0" fill="#aaaaaa" stroke="#666666"></path><rect class="textbg" fill="#ffffff" width="9.59375" height="15.1875" x="-4.75" y="23"></rect><text class="nodelabel" y="35" text-anchor="middle">ψ</text></g></svg>